<?xml version="1.0" encoding="UTF-8"?>
<svg width="23px" height="32px" viewBox="0 0 23 32" version="1.1" xmlns="http://www.w3.org/2000/svg" xmlns:xlink="http://www.w3.org/1999/xlink">
    <!-- Generator: Sketch 51.2 (57519) - http://www.bohemiancoding.com/sketch -->
    <title>stethoscope</title>
    <desc>Created with Sketch.</desc>
    <defs></defs>
    <g id="Page-1" stroke="none" stroke-width="1" fill="none" fill-rule="evenodd">
        <g id="iPhone-8" transform="translate(-78.000000, -486.000000)" fill="#FFFFFF" fill-rule="nonzero">
            <g id="foreground" transform="translate(40.000000, 132.000000)">
                <g id="search-button" transform="translate(0.000000, 348.000000)">
                    <g id="stethoscope" transform="translate(38.860714, 6.000000)">
                        <path d="M19.6916611,20.3244772 C19.210472,19.4003148 18.7481936,18.5252617 18.4866516,18.0316702 C19.4602267,17.2037077 20.0505507,15.6869357 20.0822128,13.5866483 C20.1077157,11.8989831 19.7698226,10.425624 19.7698226,10.425624 C19.7698226,10.425624 19.646185,10.3955628 19.4951554,10.3779938 C19.3805697,9.9782436 19.2022662,9.42836727 18.9632361,8.74541412 C19.0146944,8.72370768 19.0475372,8.72004997 19.0475372,8.72004997 L18.5012331,7.19074578 C18.5012331,7.19074578 18.4478857,7.15714678 18.3681697,7.12786508 C16.5728755,2.55956027 14.7260837,1.05304185 14.2828733,0.550695815 C13.8165412,0.0219662711 13.3836815,0.0768919425 12.8631165,0.0219662711 C12.4805541,-0.0184084947 11.3799567,0.196956902 10.8230068,0.314023735 C10.7200312,0.242728295 10.6350807,0.219043098 10.6350807,0.219043098 C10.6350807,0.219043098 9.80747791,0.366450968 9.07049286,0.827163023 C8.65947592,1.08398251 8.83457185,1.84508682 8.94343123,2.0478401 C9.05227092,2.25045347 9.22695362,2.49006371 9.60784336,2.39786134 C9.98889052,2.30579888 10.9910383,1.66779763 11.1543667,1.44667583 C11.1876424,1.27378389 11.1936639,1.12635603 11.1834313,0.99745659 C11.83338,0.859222986 13.2143316,0.587912555 13.5017503,0.713034354 C13.8208704,0.851907558 15.6893278,2.17138289 17.7010223,7.5235178 C17.678845,7.61148282 17.6634567,7.71673704 17.6560578,7.84037976 L17.6190629,7.85537039 C17.6190629,7.85537039 17.7344947,8.13981262 17.8479391,8.58701312 C18.3745257,10.6645147 18.0699871,12.8634204 15.6490664,13.6836877 C13.5134981,14.4072155 11.0425556,13.1926546 9.35342491,11.9402573 C8.9546084,11.6445821 8.72234752,11.4362723 8.72234752,11.4362723 L8.70123289,11.4597377 L8.65062076,11.4012742 C8.65062076,11.4012742 8.5386916,11.2993579 8.39484452,11.2643398 C5.34503069,7.57794379 4.28170366,5.22709307 4.73955454,4.31188507 C5.2393395,3.31246971 6.229031,3.04413741 6.39631472,2.99155028 C6.50708287,3.18530918 6.65480653,3.36403748 6.8052261,3.34221112 C7.83218796,3.19324422 8.47867333,2.83310931 8.47867333,2.83310931 C8.47867333,2.83310931 8.64200174,2.85159775 8.53316205,2.06618863 C8.42430267,1.28077951 7.85052798,1.24392255 7.85052798,1.24392255 C7.20431811,1.42818738 6.58752703,1.77137289 6.32220691,1.93728919 C6.16031499,2.03844597 6.13550088,2.19450843 6.15702874,2.34947158 C6.13685867,2.34491443 6.12272978,2.34265584 6.12272978,2.34265584 C6.24292375,2.34265584 4.63069517,2.85161774 4.09318725,4.31190506 C3.65861559,5.4926471 5.4671728,9.39668707 10.359095,14.6907783 C10.2941179,14.8274728 10.2571427,14.940802 10.2571427,14.940802 C10.9938522,15.811158 11.8836576,16.6227708 12.7943414,17.29605 C14.5226906,18.5737914 16.1012893,18.9842748 17.3441202,18.6395103 C17.9933998,19.8648844 19.9299239,23.5362898 20.2070115,24.2541212 C20.5231799,25.073549 21.073577,27.0147558 19.8261218,29.2958701 C19.2153325,30.412812 17.1608972,31.1320824 15.5283607,30.38407 C14.5899308,29.9540787 13.5355179,28.9161074 12.742647,28.2381112 C7.28962277,23.5748257 5.91762471,28.6716602 3.48298834,27.1952829 C2.07499899,26.3415565 1.45850309,24.3609544 1.45850309,22.974381 C1.45850309,22.0307308 2.33541927,19.3016964 2.35476286,19.2420737 C2.35476286,19.2420737 2.26987144,19.1586259 2.15619093,19.0686421 L2.20930218,18.9164972 C2.31465885,18.9301487 2.42127492,18.9395828 2.53029172,18.9395828 C3.91950814,18.9395828 5.04562806,17.7957377 5.04562806,16.3845597 C5.04562806,14.9735016 3.91948846,13.8296565 2.53029172,13.8296565 C1.14109497,13.8296565 0.0148176263,14.9735215 0.0148176263,16.3845796 C0.0148176263,17.4218314 0.624347474,18.3127345 1.49848904,18.7130443 L1.46245839,18.8162998 C1.28334812,18.812842 1.13003587,18.8317502 1.13003587,18.8317502 C0.791178597,19.875138 0.168917004,21.9442648 0.168917004,22.974401 C0.168917004,24.5819563 0.856726423,27.1285846 2.82196085,28.32008 C4.61573979,29.4078601 6.09472781,28.2036927 7.72445024,27.6728245 C10.4761012,26.7765646 12.6610025,30.507153 14.997996,31.5781437 C17.1339972,32.5569319 19.9627076,31.74406 20.9536585,29.9318926 C23.0246628,26.1443998 21.3690046,23.5454041 19.6916611,20.3244772 Z" id="Shape"></path>
                    </g>
                </g>
            </g>
        </g>
    </g>
</svg>